<svg id="Layer_1" data-name="Layer 1" xmlns="http://www.w3.org/2000/svg" viewBox="0 0 263 100"><defs><style>.cls-1{fill:#fff;}.cls-2{fill:#006595;}</style></defs><rect class="cls-1" x="1" y="1" width="261" height="98" rx="15.16"/><path class="cls-2" d="M246.84,2A14.17,14.17,0,0,1,261,16.16V83.84A14.17,14.17,0,0,1,246.84,98H16.16A14.17,14.17,0,0,1,2,83.84V16.16A14.17,14.17,0,0,1,16.16,2H246.84m0-2H16.16A16.17,16.17,0,0,0,0,16.16V83.84A16.17,16.17,0,0,0,16.16,100H246.84A16.17,16.17,0,0,0,263,83.84V16.16A16.17,16.17,0,0,0,246.84,0Z"/><path class="cls-2" d="M45.82,7.18c-3.64,7.58-16.64,14.93-.61,26.62,4.41,3.28,11.82,5.27,8,13-.33.59.26.75.78.31,5.41-6.27,14.22-16.19,6.81-24.27C56.62,18.28,48,15.29,46.26,11a4.21,4.21,0,0,1,.5-3c.37-.89-.74-1.12-.93-.77Zm.2,0c-3.65,7.58-16.64,14.93-.62,26.62,4.42,3.28,11.83,5.27,8.05,13-.34.59.25.75.78.31,5.41-6.27,14.22-16.19,6.8-24.27C56.81,18.28,48.18,15.29,46.46,11A4.15,4.15,0,0,1,47,8c.37-.89-.73-1.12-.93-.77ZM38.34,33.42c-1.88,5.1-11.35,11,1.29,17.74,2.94,1.75,6.7,3.94,6.3,7.13-.16.41.21.47.49.14,4.16-4.79,7.29-11.6,2.19-16.19-2.67-2.58-9-4-9.66-8.4.16-.6-.53-.66-.62-.42ZM54.52,64.18l-1.81,5.34-13.86,0-2-5.39h-8.5l1.41-4,0,.11H61.66l0-.11,1.41,4Zm-22.23,18c4.38-3.25,1.78-9.29-1.61-9.2L23.86,73H19.69v19h4.22v0l7.43-.12C36,91.76,38.13,83.85,32.29,82.21Zm-3.21-1.72H23.91V76.23l5.23.1C30.93,76.33,31.76,80.6,29.08,80.49Zm.83,8-6-.05V84L30,83.93C32.33,84,32.19,88.57,29.91,88.51ZM23.86,73ZM50.5,82.21c4.38-3.25,1.79-9.29-1.61-9.2L42.07,73H37.91v19h4.21v0l7.43-.12C54.23,91.76,56.34,83.85,50.5,82.21Zm-3.21-1.72H42.12V76.23l5.23.1C49.14,76.33,50,80.6,47.29,80.49Zm.83,8-6-.05V84l6.06-.11C50.55,84,50.4,88.57,48.12,88.51ZM42.07,73Zm26.45,9.26C72.9,79,70.3,72.92,66.91,73L60.09,73H55.92v19h4.22v0l7.43-.12C72.25,91.76,74.36,83.85,68.52,82.21Zm-3.21-1.72H60.14V76.23l5.23.1C67.16,76.33,68,80.6,65.31,80.49Zm.83,8-6-.05V84l6.06-.11C68.56,84,68.42,88.57,66.14,88.51ZM60.09,73Z"/><path class="cls-2" d="M246.84,100H90.94V0h155.9A16.17,16.17,0,0,1,263,16.16V83.84A16.17,16.17,0,0,1,246.84,100Z"/><path class="cls-1" d="M117.8,26h-9l-1.93,4.3h-1.77l7.36-16.1h1.67l7.36,16.1h-1.79Zm-.62-1.38L113.31,16l-3.86,8.65Zm5.34-.37a6,6,0,0,1,6.23-6.14,5.28,5.28,0,0,1,4.73,2.39l-1.21.83a4.11,4.11,0,0,0-3.52-1.79,4.44,4.44,0,0,0-4.58,4.71A4.44,4.44,0,0,0,128.75,29a4.11,4.11,0,0,0,3.52-1.78l1.21.83a5.31,5.31,0,0,1-4.73,2.39A6,6,0,0,1,122.52,24.23Zm12.74,0a6,6,0,0,1,6.23-6.14,5.3,5.3,0,0,1,4.74,2.39l-1.22.83a4.11,4.11,0,0,0-3.52-1.79,4.44,4.44,0,0,0-4.58,4.71A4.44,4.44,0,0,0,141.49,29,4.11,4.11,0,0,0,145,27.17l1.22.83a5.32,5.32,0,0,1-4.74,2.39A6,6,0,0,1,135.26,24.23Zm20.26-6.14v1.59l-.39,0c-2.53,0-4.07,1.61-4.07,4.46v6.16h-1.64V18.18H151v2.37C151.75,18.94,153.29,18.09,155.52,18.09Zm13.36,6.65H158.76A4.48,4.48,0,0,0,163.52,29a4.75,4.75,0,0,0,3.7-1.59l.92,1.06a6.4,6.4,0,0,1-11-4.19A5.83,5.83,0,0,1,163,18.09c3.4,0,5.86,2.51,5.86,6.14C168.9,24.37,168.88,24.55,168.88,24.74Zm-10.12-1.22h8.58a4.3,4.3,0,0,0-8.58,0Zm24.52-10.3V30.28h-1.57V27.89a5.22,5.22,0,0,1-4.66,2.5,5.87,5.87,0,0,1-6-6.16,5.86,5.86,0,0,1,6-6.14,5.3,5.3,0,0,1,4.6,2.39V13.22Zm-1.61,11a4.5,4.5,0,1,0-9,0,4.5,4.5,0,1,0,9,0Zm5.8-9.86a1.18,1.18,0,0,1,1.19-1.15,1.16,1.16,0,0,1,1.2,1.12,1.2,1.2,0,0,1-2.39,0Zm.36,3.81h1.64v12.1h-1.64Zm12.56,11.36a3.85,3.85,0,0,1-2.55.85,3.2,3.2,0,0,1-3.54-3.51V19.56h-2.16V18.18h2.16V15.54h1.63v2.64h3.68v1.38h-3.68v7.22A1.94,1.94,0,0,0,198,29a2.73,2.73,0,0,0,1.8-.62Zm13.06-4.8H203.34A4.47,4.47,0,0,0,208.1,29a4.76,4.76,0,0,0,3.7-1.59l.92,1.06a6.4,6.4,0,0,1-11-4.19,5.83,5.83,0,0,1,5.91-6.14,5.77,5.77,0,0,1,5.87,6.14C213.48,24.37,213.45,24.55,213.45,24.74Zm-10.11-1.22h8.57a4.29,4.29,0,0,0-8.57,0Zm24.51-10.3V30.28h-1.56V27.89a5.24,5.24,0,0,1-4.67,2.5,5.86,5.86,0,0,1-6-6.16,5.85,5.85,0,0,1,6-6.14,5.29,5.29,0,0,1,4.6,2.39V13.22Zm-1.61,11a4.5,4.5,0,1,0-9,0,4.5,4.5,0,1,0,9,0ZM121.16,51c0,2.74-2,4.3-6,4.3H107.7V39.18h7c3.58,0,5.65,1.52,5.65,4.14A3.73,3.73,0,0,1,117.84,47,3.84,3.84,0,0,1,121.16,51ZM109.4,40.59v5.84h5.13c2.58,0,4.07-1,4.07-2.92s-1.49-2.92-4.07-2.92Zm10,10.25c0-2.09-1.54-3-4.37-3H109.4v6.05h5.68C117.91,53.88,119.45,53,119.45,50.84Zm16.15-7.66v12.1H134V53.07a4.82,4.82,0,0,1-4.35,2.32c-3.08,0-5.1-1.72-5.1-5.19v-7h1.63V50c0,2.57,1.33,3.88,3.63,3.88,2.53,0,4.12-1.63,4.12-4.39V43.18Zm2.9,10.72.74-1.29a7.26,7.26,0,0,0,4.3,1.36c2.3,0,3.24-.78,3.24-2,0-3.15-7.84-.67-7.84-5.45,0-2,1.7-3.45,4.78-3.45A8.21,8.21,0,0,1,148,44.22l-.72,1.31a6.14,6.14,0,0,0-3.56-1c-2.18,0-3.15.85-3.15,2,0,3.26,7.84.8,7.84,5.45,0,2.09-1.84,3.44-5,3.44A8.09,8.09,0,0,1,138.5,53.9Zm12.56-14.53a1.18,1.18,0,0,1,1.19-1.15,1.16,1.16,0,0,1,1.2,1.12,1.2,1.2,0,0,1-2.39,0Zm.37,3.81h1.63v12.1h-1.63Zm17.31,5.09v7h-1.63V48.43c0-2.56-1.33-3.87-3.63-3.87-2.6,0-4.23,1.61-4.23,4.37v6.35h-1.64V43.18h1.57v2.23a5.07,5.07,0,0,1,4.6-2.32C166.72,43.09,168.74,44.79,168.74,48.27Zm15,1.47H173.64A4.48,4.48,0,0,0,178.4,54a4.78,4.78,0,0,0,3.71-1.59l.92,1.06a6.4,6.4,0,0,1-11-4.19,5.83,5.83,0,0,1,5.91-6.14c3.4,0,5.86,2.51,5.86,6.14C183.78,49.37,183.76,49.55,183.76,49.74Zm-10.12-1.22h8.58a4.3,4.3,0,0,0-8.58,0Zm11.8,5.38.74-1.29a7.29,7.29,0,0,0,4.3,1.36c2.3,0,3.24-.78,3.24-2,0-3.15-7.84-.67-7.84-5.45,0-2,1.7-3.45,4.78-3.45a8.19,8.19,0,0,1,4.28,1.13l-.71,1.31a6.19,6.19,0,0,0-3.57-1c-2.18,0-3.15.85-3.15,2,0,3.26,7.84.8,7.84,5.45,0,2.09-1.84,3.44-5,3.44A8.09,8.09,0,0,1,185.44,53.9Zm11.25,0,.73-1.29A7.32,7.32,0,0,0,201.73,54c2.29,0,3.24-.78,3.24-2,0-3.15-7.84-.67-7.84-5.45,0-2,1.7-3.45,4.78-3.45a8.24,8.24,0,0,1,4.28,1.13l-.72,1.31a6.14,6.14,0,0,0-3.56-1c-2.19,0-3.15.85-3.15,2,0,3.26,7.84.8,7.84,5.45,0,2.09-1.84,3.44-5,3.44A8.09,8.09,0,0,1,196.69,53.9Zm-79.1,26.93h-7.47l-1.43,3.45h-3.82l7.18-16.1h3.68l7.2,16.1H119ZM116.42,78l-2.55-6.16L111.31,78Zm18.12-.37h-4v3.91h-3V77.63h-4v-2.8h4V70.92h3v3.91h4Zm20.08,6.65-3.1-4.49h-3.43v4.49h-3.73V68.18h7c4.3,0,7,2.23,7,5.84A5.24,5.24,0,0,1,155,79.11l3.61,5.17Zm-3.49-13.06h-3v5.61h3c2.27,0,3.42-1.06,3.42-2.81S153.4,71.22,151.13,71.22Zm20.72,6v7.06h-3.36V82.74c-.67,1.13-2,1.72-3.77,1.72-2.9,0-4.62-1.61-4.62-3.75s1.54-3.7,5.31-3.7h2.85c0-1.54-.92-2.43-2.85-2.43a5.93,5.93,0,0,0-3.57,1.15l-1.28-2.51a9.44,9.44,0,0,1,5.33-1.5C169.66,71.72,171.85,73.47,171.85,77.22Zm-3.59,3.15V79.11H165.8c-1.68,0-2.21.62-2.21,1.44s.76,1.5,2,1.5A2.64,2.64,0,0,0,168.26,80.37Zm14.81,3.31a5.09,5.09,0,0,1-2.92.78c-2.92,0-4.62-1.49-4.62-4.43V74.94h-1.91V72.18h1.91v-3h3.59v3h3.08v2.76h-3.08v5a1.44,1.44,0,0,0,1.54,1.63,2.41,2.41,0,0,0,1.45-.46Zm1.59-15.5a2.06,2.06,0,0,1,2.23-2,2,2,0,0,1,2.23,1.93,2.24,2.24,0,0,1-4.46.07Zm.44,3.73h3.58V84.28H185.1Zm19.57,5.29v7.08h-3.59V77.75c0-2-.92-2.92-2.51-2.92s-3,1.06-3,3.33v6.12H192V71.91h3.43v1.45a5.4,5.4,0,0,1,4.09-1.64C202.46,71.72,204.67,73.43,204.67,77.2Zm16.14-5.29v10.3c0,4.6-2.48,6.71-6.94,6.71a10.16,10.16,0,0,1-6.07-1.7l1.42-2.57a7.42,7.42,0,0,0,4.37,1.4c2.53,0,3.64-1.15,3.64-3.38v-.53a5.09,5.09,0,0,1-3.91,1.54,6,6,0,1,1,0-12,5,5,0,0,1,4.09,1.78V71.91Zm-3.54,5.79a3.26,3.26,0,1,0-3.24,3A3,3,0,0,0,217.27,77.7Z"/></svg>