<svg id="Layer_1" data-name="Layer 1" xmlns="http://www.w3.org/2000/svg" viewBox="0 0 220 100"><defs><style>.cls-1{fill:#f5f5f5;}.cls-2{fill:#7e7e7e;}.cls-3{fill:#e67125;}.cls-4{fill:#d0d0d1;}</style></defs><rect class="cls-1" x="0.53" width="218.93" height="100"/><path class="cls-2" d="M30,78.09A5.92,5.92,0,0,1,28.16,82,6.12,6.12,0,0,1,24,83.39a5.64,5.64,0,0,1-4.54-2,8.19,8.19,0,0,1-1.71-5.44V74.38a9.08,9.08,0,0,1,.8-3.92,5.88,5.88,0,0,1,2.26-2.6A6.22,6.22,0,0,1,24.16,67a5.83,5.83,0,0,1,4.09,1.42A6,6,0,0,1,30,72.31H27.92a4.58,4.58,0,0,0-1.2-2.77,3.56,3.56,0,0,0-2.56-.86A3.79,3.79,0,0,0,21,70.17a6.86,6.86,0,0,0-1.15,4.26V76a7,7,0,0,0,1.09,4.14,3.5,3.5,0,0,0,3,1.54,4.08,4.08,0,0,0,2.7-.79,4.46,4.46,0,0,0,1.25-2.78Z"/><path class="cls-2" d="M39.94,82a4.35,4.35,0,0,1-3.49,1.4,3.68,3.68,0,0,1-2.89-1.11,4.78,4.78,0,0,1-1-3.26V71.28h2V79q0,2.7,2.19,2.7a3,3,0,0,0,3.1-1.73V71.28h2V83.17H40Z"/><path class="cls-2" d="M51.92,80a1.49,1.49,0,0,0-.62-1.27A5.79,5.79,0,0,0,49.14,78a10.07,10.07,0,0,1-2.45-.79,3.51,3.51,0,0,1-1.34-1.1,2.64,2.64,0,0,1-.44-1.52,3.08,3.08,0,0,1,1.24-2.47,4.85,4.85,0,0,1,3.16-1,5,5,0,0,1,3.28,1,3.32,3.32,0,0,1,1.25,2.67h-2a1.83,1.83,0,0,0-.71-1.44,2.66,2.66,0,0,0-1.78-.6,2.81,2.81,0,0,0-1.74.48,1.54,1.54,0,0,0-.63,1.27,1.24,1.24,0,0,0,.59,1.11,7.28,7.28,0,0,0,2.1.71,11.33,11.33,0,0,1,2.47.81,3.72,3.72,0,0,1,1.4,1.14A2.81,2.81,0,0,1,54,79.87a3,3,0,0,1-1.27,2.56,5.35,5.35,0,0,1-3.31,1,5.91,5.91,0,0,1-2.52-.51,4,4,0,0,1-1.72-1.41,3.35,3.35,0,0,1-.62-2h2a2.12,2.12,0,0,0,.82,1.62,3.16,3.16,0,0,0,2,.6,3.27,3.27,0,0,0,1.85-.47A1.42,1.42,0,0,0,51.92,80Z"/><path class="cls-2" d="M59.36,68.4v2.88h2.22v1.57H59.36v7.38a1.66,1.66,0,0,0,.3,1.08,1.26,1.26,0,0,0,1,.35,4.72,4.72,0,0,0,1-.13v1.64a6.11,6.11,0,0,1-1.56.22,2.53,2.53,0,0,1-2-.83,3.55,3.55,0,0,1-.69-2.34V72.85H55.16V71.28h2.17V68.4Z"/><path class="cls-2" d="M63.19,77.11A7,7,0,0,1,63.88,74a5.06,5.06,0,0,1,4.71-2.91,5,5,0,0,1,3.93,1.68A6.46,6.46,0,0,1,74,77.21v.15a7.13,7.13,0,0,1-.67,3.11,5,5,0,0,1-1.9,2.15,5.28,5.28,0,0,1-2.84.77,5,5,0,0,1-3.92-1.68,6.44,6.44,0,0,1-1.5-4.45Zm2,.25a5.1,5.1,0,0,0,.91,3.17,3,3,0,0,0,2.46,1.2,2.93,2.93,0,0,0,2.46-1.22,5.52,5.52,0,0,0,.91-3.4A5,5,0,0,0,71.05,74a3.08,3.08,0,0,0-4.89,0A5.56,5.56,0,0,0,65.24,77.36Z"/><path class="cls-2" d="M78.48,71.28l0,1.32a4.38,4.38,0,0,1,3.53-1.54A3.4,3.4,0,0,1,85.45,73,4.49,4.49,0,0,1,87,71.59a4.55,4.55,0,0,1,2.24-.53q3.92,0,4,4.14v8h-2V75.32a2.75,2.75,0,0,0-.58-1.9,2.58,2.58,0,0,0-2-.63,2.71,2.71,0,0,0-1.88.67,2.74,2.74,0,0,0-.87,1.82v7.89h-2V75.38a2.27,2.27,0,0,0-2.54-2.59,2.71,2.71,0,0,0-2.73,1.7v8.68h-2V71.28Z"/><path class="cls-2" d="M101.22,83.39a5.22,5.22,0,0,1-3.94-1.59,5.89,5.89,0,0,1-1.51-4.25v-.37A7.15,7.15,0,0,1,96.44,74a5.27,5.27,0,0,1,1.89-2.17,4.71,4.71,0,0,1,2.63-.79,4.46,4.46,0,0,1,3.61,1.53A6.58,6.58,0,0,1,105.85,77v.85h-8a4.23,4.23,0,0,0,1,2.84,3.23,3.23,0,0,0,2.5,1.08,3.55,3.55,0,0,0,1.82-.44,4.4,4.4,0,0,0,1.31-1.17l1.24,1A5,5,0,0,1,101.22,83.39ZM101,72.73a2.7,2.7,0,0,0-2.06.9,4.29,4.29,0,0,0-1,2.51h5.95V76a3.94,3.94,0,0,0-.83-2.4A2.56,2.56,0,0,0,101,72.73Z"/><path class="cls-2" d="M114,73.1a6.28,6.28,0,0,0-1-.07,2.68,2.68,0,0,0-2.71,1.7v8.44h-2V71.28h2l0,1.37a3.16,3.16,0,0,1,2.83-1.59,2.09,2.09,0,0,1,.9.15Z"/><path class="cls-2" d="M127.57,76.7h-3.75v6.47H121.7v-16H127a6.28,6.28,0,0,1,4.16,1.23A4.44,4.44,0,0,1,132.61,72a4.31,4.31,0,0,1-.81,2.61,4.86,4.86,0,0,1-2.25,1.66L133.31,83v.13h-2.26ZM123.82,75h3.24a3.69,3.69,0,0,0,2.5-.81,2.75,2.75,0,0,0,.93-2.18,2.91,2.91,0,0,0-.89-2.28,3.69,3.69,0,0,0-2.55-.8h-3.23Z"/><path class="cls-2" d="M140.17,83.39a5.18,5.18,0,0,1-3.93-1.59,5.89,5.89,0,0,1-1.51-4.25v-.37A7.15,7.15,0,0,1,135.4,74a5.27,5.27,0,0,1,1.89-2.17,4.71,4.71,0,0,1,2.63-.79,4.46,4.46,0,0,1,3.61,1.53A6.64,6.64,0,0,1,144.81,77v.85h-8.05a4.23,4.23,0,0,0,1,2.84,3.21,3.21,0,0,0,2.5,1.08,3.58,3.58,0,0,0,1.82-.44,4.53,4.53,0,0,0,1.31-1.17l1.24,1A5,5,0,0,1,140.17,83.39Zm-.25-10.66a2.68,2.68,0,0,0-2.06.9,4.36,4.36,0,0,0-1,2.51h6V76a3.88,3.88,0,0,0-.84-2.4A2.53,2.53,0,0,0,139.92,72.73Z"/><path class="cls-2" d="M150.94,80.41l2.95-9.13H156L151.7,83.17h-1.55l-4.31-11.89h2.08Z"/><path class="cls-2" d="M157.93,68.13a1.24,1.24,0,0,1,.3-.84,1.16,1.16,0,0,1,.9-.34,1.19,1.19,0,0,1,.9.34,1.24,1.24,0,0,1,.31.84,1.1,1.1,0,0,1-1.21,1.15,1.16,1.16,0,0,1-.9-.33A1.17,1.17,0,0,1,157.93,68.13Zm2.2,15h-2V71.28h2Z"/><path class="cls-2" d="M168.31,83.39a5.18,5.18,0,0,1-3.93-1.59,5.9,5.9,0,0,1-1.52-4.25v-.37a7.16,7.16,0,0,1,.68-3.16,5.27,5.27,0,0,1,1.89-2.17,4.69,4.69,0,0,1,2.63-.79,4.45,4.45,0,0,1,3.6,1.53A6.59,6.59,0,0,1,173,77v.85h-8.06a4.28,4.28,0,0,0,1,2.84,3.24,3.24,0,0,0,2.5,1.08,3.53,3.53,0,0,0,1.82-.44,4.4,4.4,0,0,0,1.31-1.17l1.24,1A5,5,0,0,1,168.31,83.39Zm-.25-10.66a2.72,2.72,0,0,0-2.07.9,4.35,4.35,0,0,0-1,2.51h5.95V76a3.82,3.82,0,0,0-.83-2.4A2.54,2.54,0,0,0,168.06,72.73Z"/><path class="cls-2" d="M185.82,80.37l2.29-9.09h2l-3.46,11.89H185l-2.89-9-2.81,9h-1.65l-3.45-11.89h2l2.34,8.9,2.77-8.9H183Z"/><path class="cls-2" d="M199.13,80a1.49,1.49,0,0,0-.62-1.27,5.93,5.93,0,0,0-2.17-.79,10.22,10.22,0,0,1-2.45-.79,3.59,3.59,0,0,1-1.34-1.1,2.64,2.64,0,0,1-.43-1.52,3.1,3.1,0,0,1,1.23-2.47,4.87,4.87,0,0,1,3.16-1,5,5,0,0,1,3.28,1,3.32,3.32,0,0,1,1.26,2.67h-2a1.87,1.87,0,0,0-.71-1.44,2.67,2.67,0,0,0-1.79-.6,2.76,2.76,0,0,0-1.73.48,1.54,1.54,0,0,0-.63,1.27,1.23,1.23,0,0,0,.58,1.11,7.26,7.26,0,0,0,2.11.71,11.4,11.4,0,0,1,2.46.81,3.64,3.64,0,0,1,1.4,1.14,2.74,2.74,0,0,1,.46,1.62,3,3,0,0,1-1.27,2.56,5.37,5.37,0,0,1-3.31,1,6,6,0,0,1-2.53-.51,4.07,4.07,0,0,1-1.72-1.41,3.42,3.42,0,0,1-.62-2h2a2.12,2.12,0,0,0,.82,1.62,3.17,3.17,0,0,0,2,.6,3.29,3.29,0,0,0,1.85-.47A1.44,1.44,0,0,0,199.13,80Z"/><path class="cls-2" d="M48.48,51.79a5.93,5.93,0,1,1-5.93-5.91A5.84,5.84,0,0,1,48.48,51.79Zm-2.6,0a3.34,3.34,0,1,0-3.33,3.58A3.4,3.4,0,0,0,45.88,51.79Zm15.39,0a5.93,5.93,0,1,1-5.93-5.91A5.84,5.84,0,0,1,61.27,51.79Zm-2.6,0a3.34,3.34,0,1,0-3.33,3.58A3.4,3.4,0,0,0,58.67,51.79Zm14.86-5.55V56.85C73.53,61.22,71,63,67.91,63a5.64,5.64,0,0,1-5.24-3.48l2.26-1a3.27,3.27,0,0,0,3,2.1c2,0,3.16-1.2,3.16-3.46v-.85H71a4,4,0,0,1-3.11,1.34,5.92,5.92,0,0,1,0-11.82A4.1,4.1,0,0,1,71,47.2h.1v-1Zm-2.28,5.57a3.33,3.33,0,0,0-3.16-3.6,3.59,3.59,0,0,0,0,7.16A3.3,3.3,0,0,0,71.25,51.81ZM77.6,40V57.34H75.06V40Zm9.86,13.72,2,1.34a5.9,5.9,0,0,1-4.93,2.62,5.78,5.78,0,0,1-5.86-5.91,5.61,5.61,0,0,1,5.57-5.91,5.49,5.49,0,0,1,5.06,3.76l.27.67-7.9,3.27a3,3,0,0,0,2.86,1.79,3.38,3.38,0,0,0,2.91-1.63Zm-6.2-2.13,5.28-2.19a2.28,2.28,0,0,0-2.19-1.26A3.25,3.25,0,0,0,81.26,51.61ZM27,50.25v-2.5h8.45a7.59,7.59,0,0,1,.13,1.51,8.33,8.33,0,0,1-2.17,5.87A8.45,8.45,0,0,1,27,57.7a9.18,9.18,0,1,1,0-18.36,8.74,8.74,0,0,1,6.29,2.53l-1.77,1.77A6.36,6.36,0,0,0,27,41.85a6.67,6.67,0,0,0,0,13.34,6.17,6.17,0,0,0,4.64-1.83A5.26,5.26,0,0,0,33,50.25Z"/><path class="cls-3" d="M26.94,25.69h1.69v2.39H26.94v3.23H24V28.08H17.86l-.14-1.86L24,16.38h3Zm-6.27,0H24V20.42l-.2.34Zm9.83,4.17A1.5,1.5,0,0,1,31,28.71a1.86,1.86,0,0,1,2.4,0,1.61,1.61,0,0,1,0,2.28,1.71,1.71,0,0,1-1.21.43A1.68,1.68,0,0,1,31,31,1.49,1.49,0,0,1,30.5,29.86Zm35.59-4.8,5.08-3.69H64.89l-1.93-6-1.94,6H54.74l5.08,3.69-1.93,6L63,27.34,68,31Zm18.12,0,5.08-3.69H83l-1.94-6-1.93,6H72.86l5.08,3.69L76,31l5.06-3.68L86.14,31Zm18.11,0,5.09-3.69h-6.29l-1.93-6-1.93,6H91l5.09,3.69-1.94,6,5.07-3.68L104.26,31Zm18.12,0,5.08-3.69h-6.28l-1.93-6-1.94,6h-6.28l5.08,3.69-1.93,6,5.07-3.68L122.37,31Zm18.12,0,5.08-3.69h-6.28l-1.94-6-1.93,6h-6.28l5.08,3.69-1.93,6,5.06-3.68L140.49,31ZM46.3,18,40.55,31.26H37.43l5.77-12.5H35.8V16.38H46.3Z"/><polygon class="cls-4" points="138.56 25.06 143.64 21.37 137.36 21.37 135.42 15.41 135.42 27.34 140.49 31.02 138.56 25.06"/></svg>