<svg id="Layer_1" data-name="Layer 1" xmlns="http://www.w3.org/2000/svg" viewBox="0 0 200 100"><defs><style>.cls-1{fill:#fff;}.cls-2{fill:#01b67b;}.cls-3{fill:#024f2d;}.cls-4{fill:#00b878;}.cls-5{fill:#dcdce6;}</style></defs><rect class="cls-1" width="200" height="100"/><polygon class="cls-2" points="42.01 32.08 54.85 22.75 38.98 22.75 34.09 7.7 29.21 22.75 13.34 22.75 26.18 32.08 21.3 47.14 34.09 37.84 46.9 47.14 42.01 32.08"/><polygon class="cls-3" points="34.09 37.84 42.01 32.08 43.15 35.59 34.09 37.84"/><rect class="cls-4" x="13.12" y="55.71" width="32.55" height="32.55"/><polygon class="cls-1" points="40.56 69.47 32.02 69.47 29.39 61.38 26.77 69.47 18.23 69.47 25.14 74.49 22.51 82.59 29.39 77.59 33.65 74.49 40.56 69.47"/><polygon class="cls-1" points="29.39 77.59 36.28 82.59 34.26 76.38 29.39 77.59"/><rect class="cls-4" x="48.42" y="55.71" width="32.55" height="32.55"/><polygon class="cls-1" points="75.86 69.47 67.32 69.47 64.7 61.38 62.07 69.47 53.53 69.47 60.44 74.49 57.81 82.59 64.7 77.59 68.95 74.49 75.86 69.47"/><polygon class="cls-1" points="64.7 77.59 71.58 82.59 69.56 76.38 64.7 77.59"/><rect class="cls-4" x="83.73" y="55.71" width="32.55" height="32.55"/><polygon class="cls-1" points="111.16 69.47 102.63 69.47 100 61.38 97.37 69.47 88.84 69.47 95.74 74.49 93.12 82.59 100 77.59 104.26 74.49 111.16 69.47"/><polygon class="cls-1" points="100 77.59 106.88 82.59 104.87 76.38 100 77.59"/><rect class="cls-4" x="119.03" y="55.71" width="32.55" height="32.55"/><polygon class="cls-1" points="146.47 69.47 137.93 69.47 135.3 61.38 132.68 69.47 124.14 69.47 131.05 74.49 128.42 82.59 135.3 77.59 139.56 74.49 146.47 69.47"/><polygon class="cls-1" points="135.3 77.59 142.19 82.59 140.17 76.38 135.3 77.59"/><rect class="cls-4" x="154.33" y="55.71" width="16.27" height="32.55"/><rect class="cls-5" x="170.6" y="55.71" width="16.27" height="32.55"/><polygon class="cls-1" points="181.77 69.47 173.23 69.47 170.6 61.38 167.98 69.47 159.44 69.47 166.35 74.49 163.72 82.59 170.6 77.59 174.86 74.49 181.77 69.47"/><polygon class="cls-1" points="170.6 77.59 177.49 82.59 175.47 76.38 170.6 77.59"/><path d="M58.5,22.88H75.84v3.24H69V44.3H65.28V26.12H58.5Z"/><path d="M75.09,28.79H78.3v3h.06A3.48,3.48,0,0,1,79,30.56a5.73,5.73,0,0,1,1-1.1,5.26,5.26,0,0,1,1.36-.79,4.09,4.09,0,0,1,1.53-.3,7.53,7.53,0,0,1,.83,0l.46.06v3.3l-.73-.11a6.23,6.23,0,0,0-.74,0,3.9,3.9,0,0,0-1.63.34,3.77,3.77,0,0,0-1.34,1,5,5,0,0,0-.9,1.67,7.21,7.21,0,0,0-.33,2.28V44.3H75.09Z"/><path d="M99.27,44.3H95.91V42.14h-.06A4.67,4.67,0,0,1,94,44a5.12,5.12,0,0,1-2.54.71c-2,0-3.51-.51-4.42-1.52a6.64,6.64,0,0,1-1.37-4.57V28.79h3.42V38.3a4.21,4.21,0,0,0,.78,2.88A2.84,2.84,0,0,0,92,42a4.32,4.32,0,0,0,1.8-.33A3.19,3.19,0,0,0,95,40.8a3.38,3.38,0,0,0,.65-1.33,6.92,6.92,0,0,0,.19-1.68v-9h3.42Z"/><path d="M105.45,39.32a2.58,2.58,0,0,0,1.14,2.1A4.49,4.49,0,0,0,109,42a9.33,9.33,0,0,0,1.1-.08,4.72,4.72,0,0,0,1.15-.28,2.2,2.2,0,0,0,.89-.62,1.46,1.46,0,0,0,.31-1.06,1.51,1.51,0,0,0-.48-1.08,3.31,3.31,0,0,0-1.15-.68,11.3,11.3,0,0,0-1.61-.43l-1.83-.39a17.08,17.08,0,0,1-1.84-.51,6,6,0,0,1-1.59-.81,3.77,3.77,0,0,1-1.13-1.31,4.15,4.15,0,0,1-.42-2,3.55,3.55,0,0,1,.62-2.12,4.71,4.71,0,0,1,1.56-1.38,6.79,6.79,0,0,1,2.1-.73,12.28,12.28,0,0,1,2.2-.21,10.13,10.13,0,0,1,2.3.25,6.25,6.25,0,0,1,2,.83,4.83,4.83,0,0,1,1.47,1.48,5.16,5.16,0,0,1,.73,2.21h-3.57a2.12,2.12,0,0,0-1.12-1.65,4.69,4.69,0,0,0-2-.42,7.17,7.17,0,0,0-.85.06,4,4,0,0,0-.93.22,2,2,0,0,0-.74.48,1.16,1.16,0,0,0-.3.83,1.31,1.31,0,0,0,.44,1,3.44,3.44,0,0,0,1.14.64,11.09,11.09,0,0,0,1.6.44l1.86.39q.93.21,1.83.51a5.93,5.93,0,0,1,1.61.81,3.94,3.94,0,0,1,1.14,1.29,3.89,3.89,0,0,1,.43,1.92A4.17,4.17,0,0,1,115.2,42a5,5,0,0,1-1.63,1.56,7.47,7.47,0,0,1-2.24.87,11.31,11.31,0,0,1-2.43.27,10.54,10.54,0,0,1-2.71-.33,6.34,6.34,0,0,1-2.16-1,4.86,4.86,0,0,1-1.44-1.68,5.32,5.32,0,0,1-.56-2.38Z"/><path d="M116.88,28.79h2.58V24.14h3.42v4.65H126v2.55h-3.09v8.28a8.14,8.14,0,0,0,.05.93,1.61,1.61,0,0,0,.21.66,1,1,0,0,0,.49.4,2.42,2.42,0,0,0,.9.14l.72,0a3.57,3.57,0,0,0,.72-.1v2.64l-1.11.12a10,10,0,0,1-1.11.06,7.51,7.51,0,0,1-2.17-.26,2.9,2.9,0,0,1-1.29-.75,2.57,2.57,0,0,1-.63-1.24,9.34,9.34,0,0,1-.2-1.71V31.34h-2.58Z"/><path d="M128.52,28.79h3.24v2.1h.06a4.24,4.24,0,0,1,2-1.94,6.67,6.67,0,0,1,2.79-.58,7.43,7.43,0,0,1,3.2.64,6.28,6.28,0,0,1,2.26,1.77,7.71,7.71,0,0,1,1.35,2.63,11.12,11.12,0,0,1,.45,3.21,11.35,11.35,0,0,1-.4,3,7.86,7.86,0,0,1-1.23,2.59,6,6,0,0,1-5.06,2.48,8.46,8.46,0,0,1-1.5-.14,6.46,6.46,0,0,1-1.44-.43,5.66,5.66,0,0,1-1.27-.77,4.24,4.24,0,0,1-1-1.09h-.06V50h-3.42Zm11.94,7.77a7.72,7.72,0,0,0-.27-2,5.57,5.57,0,0,0-.81-1.76A4.18,4.18,0,0,0,138,31.53a3.67,3.67,0,0,0-1.86-.46,3.76,3.76,0,0,0-3.25,1.5,6.62,6.62,0,0,0-1.1,4,7.91,7.91,0,0,0,.29,2.17,4.91,4.91,0,0,0,.85,1.73,4.29,4.29,0,0,0,1.37,1.14,3.87,3.87,0,0,0,1.84.42,3.82,3.82,0,0,0,2-.48,4.22,4.22,0,0,0,1.34-1.25,5,5,0,0,0,.75-1.74A8.8,8.8,0,0,0,140.46,36.56Z"/><path d="M146.85,22.88h3.42v3.24h-3.42Zm0,5.91h3.42V44.3h-3.42Z"/><path d="M154.08,22.88h3.42V44.3h-3.42Z"/><path d="M168.33,44.72A8.42,8.42,0,0,1,165,44.1a7,7,0,0,1-2.46-1.69A7.25,7.25,0,0,1,161,39.83a10.45,10.45,0,0,1,0-6.57,7.25,7.25,0,0,1,1.53-2.58A7,7,0,0,1,165,29a9.31,9.31,0,0,1,6.63,0,7.08,7.08,0,0,1,2.46,1.7,7.25,7.25,0,0,1,1.53,2.58,10.64,10.64,0,0,1,0,6.57,7.25,7.25,0,0,1-1.53,2.58,7.06,7.06,0,0,1-2.46,1.69A8.47,8.47,0,0,1,168.33,44.72Zm0-2.7a3.92,3.92,0,0,0,2-.48,4.17,4.17,0,0,0,1.38-1.26,5.54,5.54,0,0,0,.8-1.76,7.81,7.81,0,0,0,.25-2,7.9,7.9,0,0,0-.25-2,5.34,5.34,0,0,0-.8-1.76,4.22,4.22,0,0,0-1.38-1.24,4.32,4.32,0,0,0-4,0A4.22,4.22,0,0,0,165,32.79a5.33,5.33,0,0,0-.79,1.76,7.92,7.92,0,0,0-.26,2,7.82,7.82,0,0,0,.26,2,5.52,5.52,0,0,0,.79,1.76,4.17,4.17,0,0,0,1.38,1.26A3.92,3.92,0,0,0,168.33,42Z"/><path d="M177.45,28.79H180V24.14h3.42v4.65h3.09v2.55h-3.09v8.28a8.14,8.14,0,0,0,.05.93,1.61,1.61,0,0,0,.21.66.94.94,0,0,0,.49.4,2.42,2.42,0,0,0,.9.14l.72,0a3.57,3.57,0,0,0,.72-.1v2.64l-1.11.12a10,10,0,0,1-1.11.06,7.51,7.51,0,0,1-2.17-.26,2.9,2.9,0,0,1-1.29-.75,2.41,2.41,0,0,1-.63-1.24,9.34,9.34,0,0,1-.2-1.71V31.34h-2.58Z"/></svg>